HIERARCHY
ROOT root
{
	OFFSET 0.000000 0.000000 0.000000
	CHANNELS 6 Xposition Yposition Zposition Zrotation Yrotation Xrotation
	JOINT lhip
	{
		OFFSET 0.058581 -0.082280 -0.017664
		CHANNELS 3 Zrotation Yrotation Xrotation
		JOINT lknee
		{
			OFFSET 0.043451 -0.386469 0.008037
			CHANNELS 3 Zrotation Yrotation Xrotation
			JOINT lankle
			{
				OFFSET -0.014790 -0.426874 -0.037428
				CHANNELS 3 Zrotation Yrotation Xrotation
				JOINT ltoe
				{
					OFFSET 0.041054 -0.060286 0.122042
					CHANNELS 3 Zrotation Yrotation Xrotation
					End Site
					{
						OFFSET 0.000000 0.000000 0.000000
					}
				}
			}
		}
	}
	JOINT rhip
	{
		OFFSET -0.060310 -0.090513 -0.013543
		CHANNELS 3 Zrotation Yrotation Xrotation
		JOINT rknee
		{
			OFFSET -0.043257 -0.383688 -0.004843
			CHANNELS 3 Zrotation Yrotation Xrotation
			JOINT rankle
			{
				OFFSET 0.019056 -0.420046 -0.034562
				CHANNELS 3 Zrotation Yrotation Xrotation
				JOINT rtoe
				{
					OFFSET -0.034840 -0.062106 0.130323
					CHANNELS 3 Zrotation Yrotation Xrotation
					End Site
					{
						OFFSET 0.000000 0.000000 0.000000
					}
				}
			}
		}
	}
	JOINT lowerback
	{
		OFFSET 0.004439 0.124404 -0.038385
		CHANNELS 3 Zrotation Yrotation Xrotation
		JOINT upperback
		{
			OFFSET 0.004488 0.137956 0.026820
			CHANNELS 3 Zrotation Yrotation Xrotation
			JOINT chest
			{
				OFFSET -0.002265 0.056032 0.002855
				CHANNELS 3 Zrotation Yrotation Xrotation
				JOINT lowerneck
				{
					OFFSET -0.013390 0.211636 -0.033468
					CHANNELS 3 Zrotation Yrotation Xrotation
					JOINT upperneck
					{
						OFFSET 0.010113 0.088937 0.050410
						CHANNELS 3 Zrotation Yrotation Xrotation
						End Site
						{
							OFFSET 0.000000 0.000000 0.000000
						}
					}
				}
				JOINT lclavicle
				{
					OFFSET 0.071702 0.114000 -0.018898
					CHANNELS 3 Zrotation Yrotation Xrotation
					JOINT lshoulder
					{
						OFFSET 0.122921 0.045205 -0.019046
						CHANNELS 3 Zrotation Yrotation Xrotation
						JOINT lelbow
						{
							OFFSET 0.255332 -0.015649 -0.022946
							CHANNELS 3 Zrotation Yrotation Xrotation
							JOINT lwrist
							{
								OFFSET 0.265709 0.012698 -0.007375
								CHANNELS 3 Zrotation Yrotation Xrotation
								End Site
								{
									OFFSET 0.000000 0.000000 0.000000
								}
							}
						}
					}
				}
				JOINT rclavicle
				{
					OFFSET -0.082954 0.112472 -0.023707
					CHANNELS 3 Zrotation Yrotation Xrotation
					JOINT rshoulder
					{
						OFFSET -0.113228 0.046853 -0.008472
						CHANNELS 3 Zrotation Yrotation Xrotation
						JOINT relbow
						{
							OFFSET -0.260127 -0.014369 -0.031269
							CHANNELS 3 Zrotation Yrotation Xrotation
							JOINT rwrist
							{
								OFFSET -0.269108 0.006794 -0.006027
								CHANNELS 3 Zrotation Yrotation Xrotation
								End Site
								{
									OFFSET 0.000000 0.000000 0.000000
								}
							}
						}
					}
				}
			}
		}
	}
}
MOTION
Frames: 9
Frame Time: 0.033333
1.154239 1.177459 1.125732 -86.704023 2.451246 85.587058 0.115468 -0.621587 8.493923 -2.518260 -15.162676 1.492131 5.765726 9.255452 -17.051032 0.000000 -0.000000 0.000000 4.137255 -2.052837 5.497081 4.134101 3.660771 5.253527 1.343185 -4.176832 -13.705293 0.000000 -0.000000 0.000000 -3.244689 2.178376 3.063211 2.743596 -2.649171 5.415275 2.062817 -1.873977 6.219809 6.743633 3.980630 8.732960 3.161575 0.772745 11.831145 -23.953442 6.869360 3.986615 -64.273038 -6.397132 8.151487 11.512263 -26.691139 4.108305 -2.048722 -1.681424 -10.668457 22.657580 -6.369682 2.866996 62.216283 1.671443 9.724554 -16.521626 24.067339 -5.197572 7.242416 0.638264 -11.473217 
1.155113 1.178053 1.125601 -86.783492 2.406823 85.809229 0.026074 -0.882544 8.191184 -2.466913 -15.045291 1.504544 5.603169 9.417953 -16.914433 0.000000 -0.000000 0.000000 4.081129 -1.902677 5.232470 4.233287 3.756046 5.160752 1.489140 -4.265799 -13.579870 0.000000 -0.000000 0.000000 -3.138126 2.241420 2.982063 2.624935 -2.493617 5.211471 2.030193 -1.864689 6.391384 6.813699 4.532145 7.798614 3.028254 1.106835 11.627063 -23.917170 7.049872 3.770540 -64.399410 -6.092127 8.328008 11.456818 -25.742579 4.497303 -2.031771 -1.835504 -10.688384 22.744749 -6.642524 2.662940 62.342403 1.614451 10.006351 -16.541765 23.703210 -5.105020 7.098416 0.793009 -11.734858 
1.155169 1.178710 1.125496 -86.832937 2.356005 85.764340 0.014066 -0.764449 8.294096 -2.410104 -15.119916 1.381758 5.587895 9.418199 -16.882541 0.000000 -0.000000 0.000000 4.066957 -1.903720 5.170470 4.223614 3.653722 5.366047 1.510474 -4.142749 -13.722496 0.000000 -0.000000 0.000000 -3.164050 2.200232 2.996695 2.575206 -2.462588 5.295073 2.001030 -1.746548 6.400745 6.878784 4.428256 8.053697 3.171799 0.912348 11.626795 -23.826921 7.209660 3.891133 -64.511234 -5.831284 8.258334 11.507736 -25.322814 4.672595 -2.226431 -1.672728 -10.678397 22.815245 -6.693010 2.728253 62.407289 1.648483 9.961045 -16.501761 23.565421 -4.938856 7.225493 0.743474 -11.697740 
1.156024 1.179346 1.125442 -86.743618 2.314082 85.818476 0.024010 -0.731013 8.087392 -2.462573 -15.206184 1.542724 5.659422 9.372851 -16.846020 0.000000 -0.000000 0.000000 4.055463 -1.975868 4.952869 4.227058 3.541846 5.556523 1.423092 -4.041013 -13.692969 0.000000 -0.000000 0.000000 -3.176299 2.205130 2.996687 2.601240 -2.474279 5.207089 2.029203 -1.730807 6.317658 6.996294 3.654658 8.867737 3.066561 0.650290 11.624643 -23.737435 7.268739 4.259855 -64.672256 -5.631479 8.085225 11.432640 -24.689763 4.872621 -2.573404 -1.371535 -10.651623 22.593039 -6.632165 3.084559 62.636099 1.762412 9.759976 -16.501243 23.497334 -4.835948 7.349898 0.753436 -11.779943 
1.156180 1.179647 1.125538 -86.596268 2.310583 85.750439 0.037227 -0.791519 8.141808 -2.463800 -15.268780 1.551826 5.604369 9.380809 -16.830619 0.000000 -0.000000 0.000000 4.013968 -2.004468 5.168540 4.290152 3.471522 5.282844 1.452310 -3.996959 -13.590946 0.000000 -0.000000 0.000000 -3.096704 2.186719 3.008789 2.529656 -2.491195 5.322923 1.983818 -1.743602 6.387739 6.864033 4.213364 8.823481 3.097888 1.068571 11.562669 -23.747032 7.245894 4.153611 -64.658645 -5.501248 8.069195 11.467518 -24.390130 4.827824 -2.534255 -1.353973 -10.483162 22.729956 -6.635373 2.973892 62.600570 1.794427 9.793865 -16.506826 23.522991 -4.942264 7.274827 0.847828 -11.832966 
1.156756 1.180104 1.125649 -86.399765 2.311232 85.706578 0.067290 -0.811815 8.058422 -2.460581 -15.399842 1.672041 5.528514 9.274580 -16.770958 0.000000 -0.000000 0.000000 3.983430 -2.075161 5.337485 4.414160 3.391430 4.975821 1.350963 -4.124646 -13.426236 0.000000 -0.000000 0.000000 -3.026416 2.217373 3.096085 2.548046 -2.528292 5.378383 1.964279 -1.796007 6.293530 6.891474 3.646345 8.977474 3.104472 0.715865 11.341470 -23.890383 7.228224 4.245983 -64.500686 -5.385959 7.995425 11.476771 -24.336639 4.951595 -2.879385 -1.251538 -10.519910 22.588043 -6.523545 2.968813 62.735745 1.689914 9.750096 -16.578299 23.675559 -4.880622 7.367713 0.640461 -11.863239 
1.157406 1.180530 1.125712 -86.339045 2.250214 85.689187 -0.007841 -0.909786 8.044997 -2.412810 -15.402035 1.628213 5.637610 9.363652 -16.806782 0.000000 -0.000000 0.000000 3.954534 -1.947020 5.362183 4.411330 3.301127 4.888640 1.365284 -4.213398 -13.417996 0.000000 -0.000000 0.000000 -3.033225 2.300240 3.176161 2.501309 -2.482108 5.324446 2.016439 -1.784383 6.323941 6.836507 3.890820 8.941083 3.147560 0.963560 11.441311 -23.833368 7.168213 4.297664 -64.649904 -5.367014 7.924609 11.505743 -24.173275 4.577987 -2.765524 -1.418707 -10.776866 22.586998 -6.433186 3.111537 62.714842 1.775625 9.843182 -16.757980 24.079600 -4.985178 7.290991 0.738792 -11.987741 
1.158159 1.180981 1.125799 -86.217053 2.237133 85.688476 -0.024591 -1.033628 7.965206 -2.395193 -15.469255 1.680403 5.631012 9.421161 -16.768038 0.000000 -0.000000 0.000000 4.017227 -1.724626 5.316021 4.390051 3.143154 4.861710 1.427615 -4.314612 -13.382482 0.000000 -0.000000 0.000000 -3.001248 2.296942 3.294409 2.483639 -2.416671 5.207403 2.006146 -1.823850 6.346689 6.757533 4.331912 9.132305 3.108736 1.352782 11.561037 -23.762378 7.222645 4.378411 -64.693610 -5.446134 7.950074 11.517557 -24.291809 4.609368 -2.653239 -1.347294 -10.769449 22.650338 -6.409577 2.959481 62.592740 1.897158 9.965705 -16.724253 24.224382 -5.050074 7.246215 0.746097 -12.073328 
1.158757 1.181253 1.125884 -85.991394 2.226292 85.669183 -0.036575 -1.118799 7.816300 -2.428597 -15.571503 1.916711 5.531255 9.414173 -16.773537 0.000000 -0.000000 0.000000 4.098007 -1.454663 5.285451 4.345879 2.892269 4.883391 1.469824 -4.578087 -13.394314 0.000000 -0.000000 0.000000 -2.899786 2.204906 3.408774 2.445313 -2.345278 4.982269 1.967492 -1.852796 6.520693 6.802409 4.127218 8.943317 3.150235 1.128631 11.612892 -23.734711 7.313561 4.190776 -64.635304 -5.448126 8.050792 11.358582 -24.618085 4.851892 -2.383401 -1.318339 -10.617372 22.527982 -6.514181 2.726977 62.647335 1.877730 10.094401 -16.760990 24.679768 -4.867230 7.035592 0.717638 -11.897883 
